<?xml version="1.0" encoding="UTF-8"?>
<!DOCTYPE svg PUBLIC "-//W3C//DTD SVG 1.1//EN" "http://www.w3.org/Graphics/SVG/1.1/DTD/svg11.dtd">
<svg xmlns="http://www.w3.org/2000/svg" version="1.1" width="320px" height="320px" style="shape-rendering:geometricPrecision; text-rendering:geometricPrecision; image-rendering:optimizeQuality; fill-rule:evenodd; clip-rule:evenodd" xmlns:xlink="http://www.w3.org/1999/xlink">
<g><path style="opacity:0.985" fill="#00a88b" d="M 220.5,82.5 C 243.601,81.5848 265.934,85.0848 287.5,93C 284.365,132.597 269.031,166.597 241.5,195C 223.32,207.88 203.32,211.547 181.5,206C 172.948,203.315 164.281,201.148 155.5,199.5C 150.396,221.897 147.062,244.564 145.5,267.5C 135.313,267.283 125.146,267.616 115,268.5C 110.792,268.771 108.792,266.771 109,262.5C 107.571,241.979 108.904,221.646 113,201.5C 119.8,182.101 126.8,162.768 134,143.5C 145.915,119.251 164.081,101.418 188.5,90C 199.018,86.2015 209.685,83.7015 220.5,82.5 Z M 230.5,126.5 C 234.514,126.334 238.514,126.501 242.5,127C 237.107,138.815 229.774,149.148 220.5,158C 208.152,164.546 195.152,166.213 181.5,163C 178.681,162.426 176.348,161.093 174.5,159C 176.062,152.538 179.396,147.205 184.5,143C 191.332,138.416 198.332,134.083 205.5,130C 213.945,128.572 222.278,127.405 230.5,126.5 Z"/></g>
<g><path style="opacity:0.984" fill="#00a88b" d="M 44.5,101.5 C 79.4517,100.716 103.618,116.382 117,148.5C 118.942,155.021 119.775,161.687 119.5,168.5C 105.819,170.049 92.152,170.216 78.5,169C 45.6226,161.463 27.7893,140.963 25,107.5C 25.8333,106.667 26.6667,105.833 27.5,105C 33.1603,103.211 38.827,102.044 44.5,101.5 Z"/></g>
</svg>
